DBRep_DrawableShape

CASCADE Topology V1, (c) Matra-Datavision
Locations 0
Curve2ds 17
7 0 0  3 25 23  -2.2204460492503131e-16 13.999999999999998  -2.4538772647353838e-16 13.272727272727263  0.00044109019199314311 11.818620332676058  -0.0015438156719773852 9.6348288356337708  0.0057341724959142247 7.4602461429706857  -0.021392874311682106 5.2514593197561963  0.079837324750811192 3.1702802143681574  -0.29795642469156614 0.61287436822572161  1.1119883740154497 -0.16723223272557389  3.4863665649934039 0.056054562676561746  5.6698180932836504 -0.056986017980686601  7.6525428800537947 0.17188950924621291  10.629101295592065 -0.63057201900413784  9.8310519375779482 2.3503985667703602  10.046690954096146 4.3198868428317976  9.9821842460374679 6.5518722437206343  10.024572061753974 8.7453514550129494  9.9195275069466344 10.830358299863914  10.297317910459492 13.387760800076828  8.891200851215407 14.164053045283287  6.5015150483152757 13.956027018790047  4.3754662282507875 14.011838879556526  2.1784382204997779 13.996617462983842  0.72727272727272874 13.999999999999996  -2.2204460492503131e-16 13.999999999999998 
 0 4 2.1818181818181817 1 4.3636363636363633 1 6.545454545454545 1 8.7272727272727266 1 10.909090909090908 1 13.09090909090909 1 15.272727272727272 1 17.454545454545453 1 19.636363636363633 1 21.818181818181817 1 24 1 26.18181818181818 1 28.36363636363636 1 30.545454545454543 1 32.727272727272727 1 34.909090909090907 1 37.090909090909086 1 39.272727272727266 1 41.454545454545453 1 43.636363636363633 1 45.818181818181813 1 48 4
7 0 0  3 25 23  2.2204460492503131e-16 4.9999999999999956  -1.358585858585855 1.9444444444444444  -0.81150844846603332 -0.90242354933652869  5.4236129029644617 0.2418157560111984  10.207965927517268 -0.064839474708252104  15.3808870233301 0.017542142821822242  20.450304160980487 -0.0053290965790258353  25.54516906002063 0.003774243494289127  30.64174687166425 -0.0097678773981235076  35.706025271504174 0.03529726609821205  40.897788405955424 -0.13142118699472077  45.611912013765043 0.49038748188067466  52.109108993529837 -1.8301287405279796  51.95165201211563 6.8301274802312459  45.538828412553109 4.5096188196029514  40.802125246762891 5.1313972413569164  35.616306964031743 4.9647922149693517  30.550828715291999 5.009433898765641  25.453105447527566 4.997472189968045  20.364022221870442 5.0006773413621479  15.272623846808868 4.9998184445833367  10.181846027257757 5.0000488803044805  5.0909011350692221 4.9999860341987148  1.6969696969697021 4.9999999999999964  2.2204460492503131e-16 4.9999999999999956 
 0 4 5.0909090909090908 1 10.181818181818182 1 15.272727272727273 1 20.363636363636363 1 25.454545454545453 1 30.545454545454547 1 35.636363636363633 1 40.727272727272727 1 45.81818181818182 1 50.909090909090907 1 56 1 61.090909090909093 1 66.181818181818187 1 71.272727272727266 1 76.36363636363636 1 81.454545454545453 1 86.545454545454547 1 91.63636363636364 1 96.72727272727272 1 101.81818181818181 1 106.90909090909091 1 112 4
7 0 0  3 25 23  14.000000000000016 10.000000000000021  14.000000000000012 9.2727272727272929  13.996617462983865 7.8215617795002466  14.011838879556539 5.624533771749241  13.956027018790051 3.4984849516847496  14.164053045283287 1.1087991487846254  13.387760800076842 -0.29731791045947309  10.830358299863912 0.080472493053389355  8.7453514550129618 -0.024572061753956466  6.5518722437206387 0.017815753962548385  4.3198868428318073 -0.046690954096130513  2.3503985667703771 0.16894806242206459  -0.63057201900413018 -0.62910129559205274  0.1718895092462229 2.347457119946212  -0.056986017980679406 4.3301819067163558  0.056054562676585075 6.5136334350066019  -0.16723223272556215 8.888011625984559  0.6128743682257265 10.297956424691575  3.1702802143681681 9.9201626752492018  5.2514593197562078 10.021392874311696  7.4602461429707043 9.9942658275041012  9.6348288356337797 10.001543815671996  11.818620332676081 9.9995589098080231  13.272727272727291 10.000000000000021  14.000000000000016 10.000000000000021 
 0 4 2.1818181818181817 1 4.3636363636363633 1 6.545454545454545 1 8.7272727272727266 1 10.909090909090908 1 13.09090909090909 1 15.272727272727272 1 17.454545454545453 1 19.636363636363633 1 21.818181818181817 1 24 1 26.18181818181818 1 28.36363636363636 1 30.545454545454543 1 32.727272727272727 1 34.909090909090907 1 37.090909090909086 1 39.272727272727266 1 41.454545454545453 1 43.636363636363633 1 45.818181818181813 1 48 4
7 0 0  3 25 23  1.5265566588595902e-15 5.0000000000000036  1.8798141956567272e-15 4.5454545454545485  -0.0046853576198244663 3.6316766689327218  0.016398751669394859 2.2891316587354842  -0.06090964905774246 0.84816033248899048  0.22723984456159221 -0.22722753414598382  1.8792229980841071 0.060749804094947686  3.1649590721928957 -0.015771682233803402  4.5518498040534086 0.0023369248402683365  5.9003689843207585 0.0064239828727325182  7.3012197132090222 -0.02803285633119465  8.5311157992067912 0.10570744245204988  10.39249890814563 -0.39479691347699969  9.8988885682106975 1.4734802114559533  10.011946819011591 2.6826942494713726  10.053324155742949 4.1593791542949266  9.7747565580166142 5.2252436788034773  8.1203768849178761 4.9396461304911776  6.8346449932209863 5.0161717992318273  5.4501340512891074 4.9956666725815317  4.0920915288953328 5.0011615104420661  2.7269543785841295 4.9996872856502188  1.3637273204045395 5.0000893469570835  0.45454545454545731 5.0000000000000027  1.5265566588595902e-15 5.0000000000000036 
 0 4 1.3636363636363635 1 2.7272727272727271 1 4.0909090909090908 1 5.4545454545454541 1 6.8181818181818175 1 8.1818181818181817 1 9.545454545454545 1 10.909090909090908 1 12.272727272727272 1 13.636363636363635 1 14.999999999999998 1 16.363636363636363 1 17.727272727272727 1 19.09090909090909 1 20.454545454545453 1 21.818181818181817 1 23.18181818181818 1 24.545454545454543 1 25.909090909090907 1 27.27272727272727 1 28.636363636363633 1 30 4
7 0 0  2 5 3  6.2000000000000011 5.0000000000000124  6.2000000000000002 2.5000000000000089  6.2000000000000028 9.5536208972383801e-15  6.2024432978599195 9.8819345401422679e-15  6.2048865957198398 9.5512068764406294e-15 
 0 3 5 2 5.004886595719837 3
7 0 0  2 5 3  6.2000000000000011 5.0000000000000124  6.2000000000000002 2.5000000000000089  6.2000000000000028 9.5536208972383801e-15  6.2024432978599195 9.8819345401422679e-15  6.2048865957198398 9.5512068764406294e-15 
 0 3 5 2 5.004886595719837 3
7 0 0  3 25 23  1.5265566588595902e-15 5.0000000000000036  1.8798141956567272e-15 4.5454545454545485  -0.0046853576198244663 3.6316766689327218  0.016398751669394859 2.2891316587354842  -0.06090964905774246 0.84816033248899048  0.22723984456159221 -0.22722753414598382  1.8792229980841071 0.060749804094947686  3.1649590721928957 -0.015771682233803402  4.5518498040534086 0.0023369248402683365  5.9003689843207585 0.0064239828727325182  7.3012197132090222 -0.02803285633119465  8.5311157992067912 0.10570744245204988  10.39249890814563 -0.39479691347699969  9.8988885682106975 1.4734802114559533  10.011946819011591 2.6826942494713726  10.053324155742949 4.1593791542949266  9.7747565580166142 5.2252436788034773  8.1203768849178761 4.9396461304911776  6.8346449932209863 5.0161717992318273  5.4501340512891074 4.9956666725815317  4.0920915288953328 5.0011615104420661  2.7269543785841295 4.9996872856502188  1.3637273204045395 5.0000893469570835  0.45454545454545731 5.0000000000000027  1.5265566588595902e-15 5.0000000000000036 
 0 4 1.3636363636363635 1 2.7272727272727271 1 4.0909090909090908 1 5.4545454545454541 1 6.8181818181818175 1 8.1818181818181817 1 9.545454545454545 1 10.909090909090908 1 12.272727272727272 1 13.636363636363635 1 14.999999999999998 1 16.363636363636363 1 17.727272727272727 1 19.09090909090909 1 20.454545454545453 1 21.818181818181817 1 23.18181818181818 1 24.545454545454543 1 25.909090909090907 1 27.27272727272727 1 28.636363636363633 1 30 4
7 0 0  2 7 4  6.2048865957198398 9.5510555366392714e-15  11.202443297859917 8.6015364041429022e-15  16.200000000000006 7.9469867228852493e-15  16.200000000000003 2.5000000000000093  16.200000000000003 5.0000000000000098  11.199999999999999 5.0000000000000062  6.2000000000000011 5.0000000000000124 
 5.004886595719837 3 15 2 20 2 30 3
7 0 0  3 25 23  -4.163336342344337e-14 4.9999999999999778  -0.71616161616165774 2.9535353535353295  -0.50654662726564159 0.50253957044482034  2.8471556196720123 -0.13464607231456813  7.0088332394864983 0.036044718813277726  10.953875058745433 -0.0095328029387415341  14.957484707349748 0.0020864929414664943  18.943458839128105 0.0011868311726287203  22.941407208864877 -0.0068338176322523285  26.90909414359399 0.026148439356086232  30.985852580395306 -0.09775993979241232  34.656586443915465 0.36489131981322154  39.842347098488084 -1.36180533946084  39.374025162131986 5.0823300380297498  36.061552252983702 4.977939732795984  31.888856735023829 5.005911030785926  27.946657170557067 4.9984161440599459  23.942696400929439 5.0004243929739554  19.955284498452187 4.999886284043928  15.96343833253423 5.0000304708500529  11.972780353228815 4.9999918325556072  7.9818038909138611 5.0000021989272945  3.9909131740245543 4.999999371735024  1.3303030303029868 4.9999999999999769  -4.163336342344337e-14 4.9999999999999778 
 0 4 3.9909090909090916 1 7.9818181818181833 1 11.972727272727274 1 15.963636363636367 1 19.954545454545457 1 23.945454545454549 1 27.936363636363641 1 31.927272727272733 1 35.918181818181822 1 39.909090909090914 1 43.900000000000006 1 47.890909090909098 1 51.88181818181819 1 55.872727272727282 1 59.863636363636374 1 63.854545454545466 1 67.845454545454558 1 71.836363636363643 1 75.827272727272742 1 79.818181818181827 1 83.809090909090926 1 87.800000000000011 4
7 0 0  3 25 23  -4.163336342344337e-14 4.9999999999999778  -0.71616161616165774 2.9535353535353295  -0.50654662726564159 0.50253957044482034  2.8471556196720123 -0.13464607231456813  7.0088332394864983 0.036044718813277726  10.953875058745433 -0.0095328029387415341  14.957484707349748 0.0020864929414664943  18.943458839128105 0.0011868311726287203  22.941407208864877 -0.0068338176322523285  26.90909414359399 0.026148439356086232  30.985852580395306 -0.09775993979241232  34.656586443915465 0.36489131981322154  39.842347098488084 -1.36180533946084  39.374025162131986 5.0823300380297498  36.061552252983702 4.977939732795984  31.888856735023829 5.005911030785926  27.946657170557067 4.9984161440599459  23.942696400929439 5.0004243929739554  19.955284498452187 4.999886284043928  15.96343833253423 5.0000304708500529  11.972780353228815 4.9999918325556072  7.9818038909138611 5.0000021989272945  3.9909131740245543 4.999999371735024  1.3303030303029868 4.9999999999999769  -4.163336342344337e-14 4.9999999999999778 
 0 4 3.9909090909090916 1 7.9818181818181833 1 11.972727272727274 1 15.963636363636367 1 19.954545454545457 1 23.945454545454549 1 27.936363636363641 1 31.927272727272733 1 35.918181818181822 1 39.909090909090914 1 43.900000000000006 1 47.890909090909098 1 51.88181818181819 1 55.872727272727282 1 59.863636363636374 1 63.854545454545466 1 67.845454545454558 1 71.836363636363643 1 75.827272727272742 1 79.818181818181827 1 83.809090909090926 1 87.800000000000011 4
7 0 0  3 25 23  -4.163336342344337e-14 4.9999999999999778  -0.71616161616165774 2.9535353535353295  -0.50654662726564159 0.50253957044482034  2.8471556196720123 -0.13464607231456813  7.0088332394864983 0.036044718813277726  10.953875058745433 -0.0095328029387415341  14.957484707349748 0.0020864929414664943  18.943458839128105 0.0011868311726287203  22.941407208864877 -0.0068338176322523285  26.90909414359399 0.026148439356086232  30.985852580395306 -0.09775993979241232  34.656586443915465 0.36489131981322154  39.842347098488084 -1.36180533946084  39.374025162131986 5.0823300380297498  36.061552252983702 4.977939732795984  31.888856735023829 5.005911030785926  27.946657170557067 4.9984161440599459  23.942696400929439 5.0004243929739554  19.955284498452187 4.999886284043928  15.96343833253423 5.0000304708500529  11.972780353228815 4.9999918325556072  7.9818038909138611 5.0000021989272945  3.9909131740245543 4.999999371735024  1.3303030303029868 4.9999999999999769  -4.163336342344337e-14 4.9999999999999778 
 0 4 3.9909090909090916 1 7.9818181818181833 1 11.972727272727274 1 15.963636363636367 1 19.954545454545457 1 23.945454545454549 1 27.936363636363641 1 31.927272727272733 1 35.918181818181822 1 39.909090909090914 1 43.900000000000006 1 47.890909090909098 1 51.88181818181819 1 55.872727272727282 1 59.863636363636374 1 63.854545454545466 1 67.845454545454558 1 71.836363636363643 1 75.827272727272742 1 79.818181818181827 1 83.809090909090926 1 87.800000000000011 4
7 0 0  3 25 23  3.9968028886505635e-15 5  0.020202020202023982 4.4444444444444438  -0.028632091985403858 3.2440931416478183  0.069909291645901483 1.6153709739296083  -0.25100507459817811 -0.43284976463897834  2.0250200976559145 0.11602808462630483  3.605470138520023 -0.031262573866241178  5.371281166445808 0.0090222108386599359  7.0912233775149174 -0.004826269488398531  8.8092798689490923 0.010282867114934181  10.580748055779594 -0.036305198971338215  12.140455180659766 0.13493792877041874  14.493794857944993 -0.5034465161103362  13.884365387560269 1.8788481356709266  13.968743591813933 3.3516903370629909  14.240660245183999 5.4416632433498373  11.977706336540971 4.8816566895376585  10.393968954106683 5.0317099984995277  8.6282360288504965 4.9915033164642271  6.9112687486731597 5.0022767356435649  5.1812344310023235 4.9993897409615178  3.4547026182266438 5.0001643005103595  1.7272278233638214 4.9999530569970405  0.57575757575758257 4.9999999999999991  3.9968028886505635e-15 5 
 0 4 1.7272727272727273 1 3.4545454545454546 1 5.1818181818181817 1 6.9090909090909092 1 8.6363636363636367 1 10.363636363636363 1 12.090909090909092 1 13.818181818181818 1 15.545454545454545 1 17.272727272727273 1 19 1 20.727272727272727 1 22.454545454545453 1 24.181818181818183 1 25.90909090909091 1 27.636363636363637 1 29.363636363636363 1 31.09090909090909 1 32.81818181818182 1 34.545454545454547 1 36.272727272727273 1 38 4
7 0 0  3 25 23  -9.1371354926650383e-14 4.9999999999999245  -0.71616161616170282 2.9535353535352789  -0.50654662726568522 0.50253957044477104  2.8471556196719616 -0.13464607231462219  7.008833239486453 0.036044718813217157  10.953875058745393 -0.0095328029388085291  14.957484707349701 0.002086492941393609  18.943458839128063 0.0011868311725496674  22.941407208864842 -0.0068338176323375988  26.909094143593943 0.026148439355994722  30.985852580395271 -0.097759939792510311  34.656586443915423 0.36489131981311779  39.842347098488048 -1.3618053394609524  39.374025162131929 5.0823300380296423  36.061552252983667 4.9779397327958801  31.888856735023779 5.0059110307858283  27.946657170557021 4.9984161440598545  23.942696400929396 5.0004243929738683  19.955284498452148 4.9998862840438463  15.963438332534178 5.0000304708499792  11.972780353228771 4.999991832555537  7.9818038909138114 5.0000021989272314  3.9909131740245098 4.9999993717349627  1.3303030303029402 4.999999999999921  -9.1371354926650383e-14 4.9999999999999245 
 0 4 3.9909090909090916 1 7.9818181818181833 1 11.972727272727274 1 15.963636363636367 1 19.954545454545457 1 23.945454545454549 1 27.936363636363641 1 31.927272727272733 1 35.918181818181822 1 39.909090909090914 1 43.900000000000006 1 47.890909090909098 1 51.88181818181819 1 55.872727272727282 1 59.863636363636374 1 63.854545454545466 1 67.845454545454558 1 71.836363636363643 1 75.827272727272742 1 79.818181818181827 1 83.809090909090926 1 87.800000000000011 4
7 0 0  3 25 23  1.0658141036401503e-14 5.0000000000000036  0.020202020202030671 4.4444444444444482  -0.028632091985396856 3.2440931416478209  0.069909291645907409 1.6153709739296112  -0.2510050745981679 -0.43284976463897701  2.0250200976559087 0.11602808462630811  3.6054701385200332 -0.031262573866238208  5.371281166445816 0.0090222108386637436  7.0912233775149165 -0.0048262694883942749  8.8092798689491207 0.010282867114939507  10.580748055779614 -0.036305198971332796  12.140455180659757 0.13493792877042429  14.493794857944994 -0.50344651611032942  13.884365387560264 1.8788481356709339  13.968743591813952 3.351690337062998  14.240660245183996 5.4416632433498444  11.977706336540969 4.8816566895376639  10.393968954106684 5.0317099984995348  8.6282360288505036 4.9915033164642342  6.9112687486731668 5.0022767356435685  5.1812344310023377 4.999389740961524  3.4547026182266531 5.000164300510364  1.7272278233638261 4.9999530569970458  0.57575757575758735 5.0000000000000044  1.0658141036401503e-14 5.0000000000000036 
 0 4 1.7272727272727273 1 3.4545454545454546 1 5.1818181818181817 1 6.9090909090909092 1 8.6363636363636367 1 10.363636363636363 1 12.090909090909092 1 13.818181818181818 1 15.545454545454545 1 17.272727272727273 1 19 1 20.727272727272727 1 22.454545454545453 1 24.181818181818183 1 25.90909090909091 1 27.636363636363637 1 29.363636363636363 1 31.09090909090909 1 32.81818181818182 1 34.545454545454547 1 36.272727272727273 1 38 4
7 0 0  3 25 23  -6.8833827526759706e-15 4.9999999999999956  -1.3585858585858628 1.9444444444444444  -0.81150844846604175 -0.90242354933652869  5.4236129029644564 0.2418157560111984  10.207965927517263 -0.064839474708252104  15.380887023330095 0.017542142821822242  20.450304160980487 -0.0053290965790258353  25.545169060020633 0.003774243494289127  30.641746871664246 -0.0097678773981235076  35.70602527150416 0.03529726609821205  40.897788405955424 -0.13142118699472077  45.611912013765043 0.49038748188067466  52.109108993529837 -1.8301287405279796  51.95165201211563 6.8301274802312459  45.538828412553109 4.5096188196029514  40.802125246762891 5.1313972413569164  35.616306964031743 4.9647922149693517  30.550828715291992 5.009433898765641  25.453105447527573 4.997472189968045  20.364022221870442 5.0006773413621479  15.272623846808859 4.9998184445833367  10.181846027257755 5.0000488803044805  5.0909011350692115 4.9999860341987148  1.6969696969696932 4.9999999999999964  -6.8833827526759706e-15 4.9999999999999956 
 0 4 5.0909090909090908 1 10.181818181818182 1 15.272727272727273 1 20.363636363636363 1 25.454545454545453 1 30.545454545454547 1 35.636363636363633 1 40.727272727272727 1 45.81818181818182 1 50.909090909090907 1 56 1 61.090909090909093 1 66.181818181818187 1 71.272727272727266 1 76.36363636363636 1 81.454545454545453 1 86.545454545454547 1 91.63636363636364 1 96.72727272727272 1 101.81818181818181 1 106.90909090909091 1 112 4
7 0 0  3 25 23  1.0658141036401503e-14 5.0000000000000036  0.020202020202030671 4.4444444444444482  -0.028632091985396856 3.2440931416478209  0.069909291645907409 1.6153709739296112  -0.2510050745981679 -0.43284976463897701  2.0250200976559087 0.11602808462630811  3.6054701385200332 -0.031262573866238208  5.371281166445816 0.0090222108386637436  7.0912233775149165 -0.0048262694883942749  8.8092798689491207 0.010282867114939507  10.580748055779614 -0.036305198971332796  12.140455180659757 0.13493792877042429  14.493794857944994 -0.50344651611032942  13.884365387560264 1.8788481356709339  13.968743591813952 3.351690337062998  14.240660245183996 5.4416632433498444  11.977706336540969 4.8816566895376639  10.393968954106684 5.0317099984995348  8.6282360288505036 4.9915033164642342  6.9112687486731668 5.0022767356435685  5.1812344310023377 4.999389740961524  3.4547026182266531 5.000164300510364  1.7272278233638261 4.9999530569970458  0.57575757575758735 5.0000000000000044  1.0658141036401503e-14 5.0000000000000036 
 0 4 1.7272727272727273 1 3.4545454545454546 1 5.1818181818181817 1 6.9090909090909092 1 8.6363636363636367 1 10.363636363636363 1 12.090909090909092 1 13.818181818181818 1 15.545454545454545 1 17.272727272727273 1 19 1 20.727272727272727 1 22.454545454545453 1 24.181818181818183 1 25.90909090909091 1 27.636363636363637 1 29.363636363636363 1 31.09090909090909 1 32.81818181818182 1 34.545454545454547 1 36.272727272727273 1 38 4
7 0 0  3 25 23  -4.4408920985006262e-15 51  -4.4408920985006262e-15 48.275757575757581  0.0024334301603277072 42.829696509298586  -0.0085170055611669595 34.646062217454933  0.03163459208431349 26.513327348154412  -0.11802136277611358 18.191537480836484  0.44045085902011433 10.575068183045088  -1.6437820733043715 0.32637160516494479  6.1346774341973385 -0.098736421886734219  14.359617791060469 0.068574082381970908  22.717760492469885 -0.17555990764115073  30.096612966332682 0.63366554818260812  41.259424005835683 -2.3591022850892873  38.265691010324588 8.8027435921745241  39.077811952865879 16.184491552754871  38.823061178211809 24.532017469533344  39.029943334286756 32.796529478202714  38.457165484641081 40.427319163110425  40.541394727148848 50.676012051173863  32.777255606763454 51.08681445037606  24.495037391251756 50.976730147321874  16.351685737320302 51.006264960336424  8.1709469321941821 50.998210011332453  2.7242424242424139 51  -4.4408920985006262e-15 51 
 0 4 8.1727272727272737 1 16.345454545454547 1 24.518181818181823 1 32.690909090909095 1 40.863636363636367 1 49.036363636363646 1 57.209090909090918 1 65.38181818181819 1 73.554545454545462 1 81.727272727272734 1 89.900000000000006 1 98.072727272727292 1 106.24545454545456 1 114.41818181818184 1 122.59090909090911 1 130.76363636363638 1 138.93636363636367 1 147.10909090909092 1 155.28181818181821 1 163.45454545454547 1 171.62727272727275 1 179.80000000000001 4
Curves 14
7 0 0  1 5 5  51 -5 10  37 -5 10  37 -5 0  51 -5 0  51 -5 10 
 -0 2 14 1 24 1 38 1 48 2
7 0 0  1 5 5  51 -4.9999999999999964 32.70000000000001  51 -3.5527136788005009e-15 32.70000000000001  0 1.0635512286855008e-15 32.70000000000001  0 -4.999999999999992 32.70000000000001  51 -4.9999999999999964 32.70000000000001 
 -0 2 5 1 56 1 61 1 112 2
7 0 0  1 5 5  51.000000000000014 0 -2.1316282072803006e-14  51.000000000000007 0 9.9999999999999769  37.000000000000007 0 9.9999999999999876  37.000000000000014 0 -1.0658141036401503e-14  51.000000000000014 0 -2.1316282072803006e-14 
 0 2 10 1 24 1 34 1 48 2
7 0 0  1 5 5  51.000000000000007 -5.0000000000000036 0  51 -8.8817841970012504e-16 8.8817841970012523e-16  51 -3.6572052575887498e-16 10  51.000000000000007 -5.0000000000000027 10  51.000000000000007 -5.0000000000000036 0 
 -0 2 5 1 15 1 20 1 30 2
7 0 0  1 5 5  51.000000000000007 -5.0000000000000036 0  51 -8.8817841970012504e-16 8.8817841970012523e-16  51 -3.6572052575887498e-16 10  51.000000000000007 -5.0000000000000027 10  51.000000000000007 -5.0000000000000036 0 
 -0 2 5 1 15 1 20 1 30 2
7 0 0  1 5 5  50.999999999999993 -4.999999999999968 -6.2000000000000437  50.999999999999993 3.5527136788005009e-14 -6.2000000000000384  50.999999999999993 7.00270183366551e-14 32.699999999999953  50.999999999999993 -4.9999999999999263 32.699999999999946  50.999999999999993 -4.999999999999968 -6.2000000000000437 
 -0 2 5 1 43.900000000000006 1 48.900000000000006 1 87.800000000000011 2
7 0 0  1 5 5  50.999999999999993 -4.999999999999968 -6.2000000000000437  50.999999999999993 3.5527136788005009e-14 -6.2000000000000384  50.999999999999993 7.00270183366551e-14 32.699999999999953  50.999999999999993 -4.9999999999999263 32.699999999999946  50.999999999999993 -4.999999999999968 -6.2000000000000437 
 -0 2 5 1 43.900000000000006 1 48.900000000000006 1 87.800000000000011 2
7 0 0  1 5 5  50.999999999999993 -4.999999999999968 -6.2000000000000437  50.999999999999993 3.5527136788005009e-14 -6.2000000000000384  50.999999999999993 7.00270183366551e-14 32.699999999999953  50.999999999999993 -4.9999999999999263 32.699999999999946  50.999999999999993 -4.999999999999968 -6.2000000000000437 
 -0 2 5 1 43.900000000000006 1 48.900000000000006 1 87.800000000000011 2
7 0 0  1 5 5  51 -5 10.000000000000002  51 0 10.000000000000002  37 0 10.000000000000004  37 -5 10.000000000000004  51 -5 10.000000000000002 
 -0 2 5 1 19 1 24 1 38 2
7 0 0  1 5 5  0 -4.9999999999999147 32.700000000000102  0 8.5265128291212022e-14 32.700000000000088  0 1.8016114237947064e-13 -6.1999999999999105  0 -4.9999999999998197 -6.1999999999998963  0 -4.9999999999999147 32.700000000000102 
 -0 2 5 1 43.900000000000006 1 48.900000000000006 1 87.800000000000011 2
7 0 0  1 5 5  37 -5.0000000000000036 0  37 -1.7763568394002505e-15 0  51 -7.1054273576010019e-15 0  51.000000000000007 -5.0000000000000071 0  37 -5.0000000000000036 0 
 -0 2 5 1 19 1 24 1 38 2
7 0 0  1 5 5  0 -4.9999999999999964 -6.2000000000000011  0 -3.5527136788005017e-15 -6.2000000000000011  51.000000000000007 1.0635512286855008e-15 -6.2000000000000011  51.000000000000007 -4.999999999999992 -6.2000000000000011  0 -4.9999999999999964 -6.2000000000000011 
 -0 2 5 1 56 1 61 1 112 2
7 0 0  1 5 5  37 -5.0000000000000036 0  37 -1.7763568394002505e-15 0  51 -7.1054273576010019e-15 0  51.000000000000007 -5.0000000000000071 0  37 -5.0000000000000036 0 
 -0 2 5 1 19 1 24 1 38 2
7 0 0  1 5 5  51 -5 32.70000000000001  0 -5 32.70000000000001  0 -5 -6.1999999999999886  51 -5 -6.1999999999999886  51 -5 32.70000000000001 
 -0 2 51 1 89.900000000000006 1 140.90000000000001 1 179.80000000000001 2
Polygon3D 0
PolygonOnTriangulations 0
Surfaces 12
9 0 0 0 0 1 1 2 2 2 2 20.999999999999993 -5 26  67.000000000000014 -5 26  
20.999999999999993 -5 -16  66.999999999999986 -5 -16  

-16 2
26 2

-16 2
30 2

9 0 0 0 0 1 1 2 2 2 2 104 52.999999999999993 32.700000000000017  104 -58 32.699999999999996  
-53 53.000000000000007 32.700000000000017  -53 -58 32.699999999999989  

-53 2
104 2

-53 2
58 2

9 0 0 0 0 1 1 2 2 2 2 20.999999999999986 0 26  21.000000000000014 0 -16  
67.000000000000043 0 26  66.999999999999972 0 -16  

-16.000000000000004 2
30.000000000000004 2

-16 2
26 2

9 0 0 0 0 1 1 2 2 2 2 50.999999999999986 11.999999999999998 -12.000000000000002  51.000000000000021 -17.000000000000004 -12.000000000000002  
50.999999999999986 12 22  51.000000000000014 -17 22  

-12 2
22 2

-12 2
17 2

9 0 0 0 0 1 1 2 2 2 2 50.999999999999993 40.90000000000002 -47.099999999999959  51 -45.899999999999999 -47.100000000000051  
50.999999999999986 40.900000000000006 73.599999999999909  51 -45.900000000000013 73.600000000000094  

-40.900000000000006 2
79.800000000000011 2

-40.900000000000006 2
45.900000000000006 2

9 0 0 0 0 1 1 2 2 2 2 50.999999999999993 40.90000000000002 -47.099999999999959  51 -45.899999999999999 -47.100000000000051  
50.999999999999986 40.900000000000006 73.599999999999909  51 -45.900000000000013 73.600000000000094  

-40.900000000000006 2
79.800000000000011 2

-40.900000000000006 2
45.900000000000006 2

9 0 0 0 0 1 1 2 2 2 2 67 16 10  67 -21 10  
20.999999999999993 16 10.000000000000004  20.999999999999993 -21 10  

-15.999999999999998 2
30 2

-16 2
21 2

9 0 0 0 0 1 1 2 2 2 2 0 40.90000000000002 73.599999999999909  0 -45.899999999999999 73.600000000000108  
0 40.900000000000006 -47.099999999999945  0 -45.900000000000013 -47.100000000000051  

-40.900000000000006 2
79.800000000000011 2

-40.900000000000006 2
45.900000000000006 2

9 0 0 0 0 1 1 2 2 2 2 20.999999999999986 16 0  20.999999999999993 -21 0  
67 16 0  67 -21.000000000000004 0  

-15.999999999999998 2
29.999999999999993 2

-16 2
21 2

9 0 0 0 0 1 1 2 2 2 2 -52.999999999999993 52.999999999999993 -6.1999999999999993  -52.999999999999993 -58 -6.2000000000000028  
104 53.000000000000007 -6.1999999999999993  104 -58 -6.2000000000000028  

-53 2
104 2

-53 2
58 2

9 0 0 0 0 1 1 2 2 2 2 20.999999999999986 16 0  20.999999999999993 -21 0  
67 16 0  67 -21.000000000000004 0  

-15.999999999999998 2
29.999999999999993 2

-16 2
21 2

9 0 0 0 0 1 1 2 2 2 2 -53 -5 85.700000000000017  104 -5 85.700000000000017  
-53 -5 -59.20000000000001  104 -5 -59.20000000000001  

-53 2
91.900000000000006 2

-53 2
104 2

Triangulations 0

TShapes 57
Ve
1.00000008881784e-07
51 -5 10
0 0

0101101
*
Ed
 1.00000008881784e-07 1 1 0
1  1 0 0 48
2  1 1 0 0 48
0

0101000
+57 0 -57 0 *
Wi

0101100
+56 0 *
Fa
0  1e-07 1 0

0111000
+55 0 *
Ve
1e-07
51 -5 32.7
0 0

0101101
*
Ed
 1e-07 1 1 0
1  2 0 0 112
2  2 2 0 0 112
0

0101000
+53 0 -53 0 *
Wi

0101100
+52 0 *
Fa
0  1e-07 2 0

0111000
+51 0 *
Co

0100000
+54 0 +50 0 *
Ve
5.15112741361458
51 0 -2.1316282072803e-14
0 0

0101101
*
Ed
 1.00000021316282e-07 1 1 0
1  3 0 0 48
2  3 3 0 0 48
0

0101000
+48 0 -48 0 *
Wi

0101100
+47 0 *
Fa
0  1e-07 3 0

0111000
+46 0 *
Ve
5.83045455849161
51 -5 0
0 0

0101101
*
Ve
4.80633726558484
51 2.00711216507684e-14 0.00488659571983741
0 0

0101101
*
Ed
 1.00000008903337e-07 1 1 0
1  4 0 0 5.00488659571984
2  4 4 0 0 5.00488659571984
2  5 5 0 0 5.00488659571984
2  6 6 0 0 5.00488659571984
0

0101000
+44 0 -43 0 *
Ed
 1.00000014210855e-07 1 1 0
1  5 0 5.00488659571984 30
2  7 4 0 5.00488659571984 30
2  8 5 0 5.00488659571984 30
0

0101000
+43 0 -44 0 *
Wi

0101100
+42 0 +41 0 *
Fa
0  1e-07 4 0

0111000
+40 0 *
Ed
 1e-07 1 1 0
1  6 0 11.2048865957199 81.6
2  9 5 0 11.2048865957199 81.6
0

0101000
+43 0 -44 0 *
Wi

0101100
+38 0 +42 0 *
Wi

0101000
i41 0 *
Fa
0  1e-07 5 0

0101000
+37 0 +36 0 *
Ve
4.07451433306825e-06
51 -4.99999999999997 -6.20000000000004
0 0

0101101
*
Ed
 1e-07 1 1 0
1  7 0 0 11.2048865957199
2  10 6 0 0 11.2048865957199
0

0101000
+34 0 -43 0 *
Ed
 4.07451433306825e-06 1 1 0
1  8 0 81.6 87.8
2  11 6 0 81.6 87.8
0

0101000
+44 0 -34 0 *
Wi

0101100
-42 0 +33 0 +32 0 *
Fa
0  1e-07 6 0

0111000
+31 0 *
Sh

0101000
+39 0 +35 0 +30 0 *
Ve
1.00000003552714e-07
51 -5 10
0 0

0101101
*
Ed
 1.00000003552714e-07 1 1 0
1  9 0 0 38
2  12 7 0 0 38
0

0101000
+28 0 -28 0 *
Wi

0101100
+27 0 *
Fa
0  1e-07 7 0

0111000
+26 0 *
Ve
1e-07
0 -4.99999999999991 32.7000000000001
0 0

0101101
*
Ed
 1e-07 1 1 0
1  10 0 0 87.8
2  13 8 0 0 87.8
0

0101000
+24 0 -24 0 *
Wi

0101100
+23 0 *
Fa
0  1e-07 8 0

0111000
+22 0 *
Co

0100000
+25 0 +21 0 *
Ve
1.00000008437695e-07
37 -5 0
0 0

0101101
*
Ed
 1.00000008437695e-07 1 1 0
1  11 0 0 38
2  14 9 0 0 38
0

0101000
+19 0 -19 0 *
Wi

0101100
+18 0 *
Fa
0  1e-07 9 0

0111000
+17 0 *
Ve
1e-07
0 -5 -6.2
0 0

0101101
*
Ed
 1e-07 1 1 0
1  12 0 0 112
2  15 10 0 0 112
0

0101000
+15 0 -15 0 *
Wi

0101100
+14 0 *
Fa
0  1e-07 10 0

0111000
+13 0 *
Co

0100000
+16 0 +12 0 *
Ve
1.00000008437695e-07
37 -5 0
0 0

0101101
*
Ed
 1.00000008437695e-07 1 1 0
1  13 0 0 38
2  16 11 0 0 38
0

0101000
+10 0 -10 0 *
Wi

0101100
+9 0 *
Fa
0  1e-07 11 0

0111000
+8 0 *
Ve
1e-07
51 -5 32.7
0 0

0101101
*
Ed
 1e-07 1 1 0
1  14 0 0 179.8
2  17 12 0 0 179.8
0

0101000
+6 0 -6 0 *
Wi

0101100
+5 0 *
Fa
0  1e-07 12 0

0101000
+4 0 i10 0 *
Co

0100000
+7 0 +3 0 *
Co

0100000
+49 0 +45 0 +29 0 +20 0 +11 0 +2 0 *

+1 0 